<svg xmlns="http://www.w3.org/2000/svg" viewBox="0 0 32 32" fill="none">
  <!-- Background circle -->
  <circle cx="16" cy="16" r="15" fill="#1f2937" stroke="#3b82f6" stroke-width="2"/>
  
  <!-- Tech/Code symbol -->
  <path d="M8 12h16M8 16h16M8 20h12" stroke="#60a5fa" stroke-width="2" stroke-linecap="round"/>
  
  <!-- Binary/Code dots -->
  <circle cx="10" cy="12" r="1" fill="#60a5fa"/>
  <circle cx="14" cy="12" r="1" fill="#60a5fa"/>
  <circle cx="10" cy="16" r="1" fill="#60a5fa"/>
  <circle cx="14" cy="16" r="1" fill="#60a5fa"/>
  <circle cx="10" cy="20" r="1" fill="#60a5fa"/>
  <circle cx="14" cy="20" r="1" fill="#60a5fa"/>
  
  <!-- Octobit8 "8" symbol -->
  <path d="M22 10c0-1.1.9-2 2-2s2 .9 2 2v4c0 1.1-.9 2-2 2s-2-.9-2-2v-4zm0 8c0-1.1.9-2 2-2s2 .9 2 2v4c0 1.1-.9 2-2 2s-2-.9-2-2v-4z" fill="#60a5fa"/>
</svg> 