<svg viewBox="288.3503 217.7452 399.2993 119.5095" width="5000" height="1496.4902267547175" xmlns="http://www.w3.org/2000/svg" xmlns:xlink="http://www.w3.org/1999/xlink" preserveAspectRatio="none"><defs></defs><style>.a-hibYqk_hGcolor {fill:#E7E000;fill-opacity:1;}.ad9FIjLMKB_color {fill:#EEF9F8;fill-opacity:1;}.aF7AFd9w7Xcolors-0 {fill:#e7e000;fill-opacity:1;}.aF7AFd9w7Xcolors-1 {fill:#989898;fill-opacity:1;}.aF7AFd9w7Xcolors-2 {fill:#EEF9F8;fill-opacity:1;}</style><g opacity="1" transform="rotate(0 288.3503 217.7452)">
<svg width="119.5087" height="119.5095" x="288.3503" y="217.7452" version="1.1" preserveAspectRatio="none" viewBox="20 19.999515533447266 159.9993896484375 160.00048828125">
  <g transform="matrix(1 0 0 1 0 0)" ><g><path d="M97.648 102.445l64.498 43.182C147.743 167.089 123.516 180 97.648 180 55.052 180 20 144.991 20 102.446a77.496 77.496 0 0 1 13.443-43.615l64.205 43.614z" data-color="1" class="aF7AFd9w7Xcolors-0"></path><path d="M99.17 103.358l34.399 23.03A41.46 41.46 0 0 1 99.17 144.72c-22.718 0-41.413-18.672-41.413-41.362a41.33 41.33 0 0 1 7.169-23.261c.001-.001 34.244 23.261 34.244 23.261z" data-color="2" class="aF7AFd9w7Xcolors-1"></path><path d="M67.246 73.958c13.335-18.469 39.015-23.163 58.036-10.327s24.242 38.384 12.062 57.633l29.329 19.793c24.025-35.513 14.676-83.753-20.88-107.748S61.939 18.652 37.917 54.165l29.329 19.793z" data-color="3" class="aF7AFd9w7Xcolors-2"></path></g></g>
</svg>
</g><g opacity="1" transform="rotate(0 417.8108 238.7452)">
<svg width="269.8388" height="42.1572" x="417.8108" y="238.7452" version="1.1" preserveAspectRatio="none" viewBox="2.0703 -30.0391 194.7071 30.429800000000004">
  <g transform="matrix(1 0 0 1 0 0)" class="a-hibYqk_hGcolor"><path d="M32.34-16.68L32.34-11.33Q32.34-8.77 31.46-6.62Q30.59-4.47 29.02-2.91Q27.46-1.35 25.32-0.48Q23.18 0.39 20.66 0.39L20.66 0.39L13.79 0.39Q11.27 0.39 9.12-0.48Q6.97-1.35 5.41-2.91Q3.85-4.47 2.96-6.62Q2.07-8.77 2.07-11.33L2.07-11.33L2.07-16.68Q2.07-19.22 2.96-21.38Q3.85-23.54 5.41-25.09Q6.97-26.64 9.12-27.52Q11.27-28.40 13.79-28.40L13.79-28.40L20.66-28.40Q23.18-28.40 25.32-27.52Q27.46-26.64 29.02-25.09Q30.59-23.54 31.46-21.38Q32.34-19.22 32.34-16.68L32.34-16.68ZM27.27-11.33L27.27-16.68Q27.27-18.18 26.79-19.40Q26.31-20.63 25.44-21.49Q24.57-22.36 23.35-22.84Q22.13-23.32 20.66-23.32L20.66-23.32L13.79-23.32Q12.30-23.32 11.08-22.84Q9.86-22.36 8.98-21.49Q8.11-20.63 7.63-19.40Q7.15-18.18 7.15-16.68L7.15-16.68L7.15-11.33Q7.15-9.82 7.63-8.60Q8.11-7.38 8.98-6.51Q9.86-5.64 11.08-5.17Q12.30-4.69 13.79-4.69L13.79-4.69L20.63-4.69Q22.11-4.69 23.33-5.17Q24.55-5.64 25.43-6.51Q26.31-7.38 26.79-8.60Q27.27-9.82 27.27-11.33L27.27-11.33Z M57.25-5.08L57.25 0L43.48 0Q42.42 0 41.17-0.37Q39.92-0.74 38.86-1.59Q37.79-2.44 37.08-3.80Q36.37-5.16 36.37-7.13L36.37-7.13L36.37-14.00Q36.37-14.73 36.53-15.53Q36.70-16.33 37.05-17.12Q37.40-17.91 37.96-18.63Q38.52-19.36 39.31-19.90Q40.10-20.45 41.13-20.78Q42.17-21.11 43.48-21.11L43.48-21.11L57.25-21.11L57.25-16.04L43.48-16.04Q42.48-16.04 41.96-15.53Q41.45-15.02 41.45-13.96L41.45-13.96L41.45-7.13Q41.45-6.13 41.97-5.61Q42.50-5.08 43.52-5.08L43.52-5.08L57.25-5.08Z M80.64-21.11L80.64-16.04L71.78-16.04L71.78 0L66.64 0L66.64-16.04L60.04-16.04L60.04-21.11L66.64-21.11L66.64-28.01L71.78-28.01L71.78-21.11L80.64-21.11Z M106.88-14.00L106.88-7.13Q106.88-5.82 106.54-4.78Q106.21-3.73 105.66-2.94Q105.12-2.15 104.39-1.59Q103.67-1.04 102.88-0.68Q102.09-0.33 101.28-0.17Q100.47 0 99.75 0L99.75 0L90.59 0Q89.53 0 88.28-0.37Q87.03-0.74 85.97-1.59Q84.90-2.44 84.19-3.80Q83.48-5.16 83.48-7.13L83.48-7.13L83.48-14.00Q83.48-15.96 84.19-17.31Q84.90-18.67 85.97-19.52Q87.03-20.37 88.28-20.74Q89.53-21.11 90.59-21.11L90.59-21.11L99.75-21.11Q101.70-21.11 103.07-20.41Q104.43-19.71 105.27-18.64Q106.11-17.58 106.49-16.33Q106.88-15.08 106.88-14.00L106.88-14.00ZM101.80-7.13L101.80-13.96Q101.80-15.02 101.27-15.53Q100.74-16.04 99.75-16.04L99.75-16.04L90.63-16.04Q89.61-16.04 89.08-15.52Q88.55-15 88.55-14.00L88.55-14.00L88.55-7.13Q88.55-6.13 89.08-5.61Q89.61-5.08 90.63-5.08L90.63-5.08L99.75-5.08Q100.78-5.08 101.29-5.61Q101.80-6.13 101.80-7.13L101.80-7.13Z M134.47-14.00L134.47-7.13Q134.47-6.41 134.31-5.61Q134.14-4.80 133.79-4.01Q133.44-3.22 132.88-2.50Q132.32-1.78 131.53-1.22Q130.74-0.66 129.71-0.33Q128.67 0 127.36 0L127.36 0L118.20 0Q117.48 0 116.68-0.17Q115.88-0.33 115.09-0.68Q114.30-1.04 113.57-1.59Q112.85-2.15 112.29-2.94Q111.74-3.73 111.41-4.78Q111.07-5.82 111.07-7.13L111.07-7.13L111.07-30.04L116.15-30.04L116.15-7.13Q116.15-6.19 116.74-5.63Q117.32-5.08 118.20-5.08L118.20-5.08L127.36-5.08Q128.32-5.08 128.86-5.64Q129.39-6.21 129.39-7.13L129.39-7.13L129.39-14.00Q129.39-14.96 128.83-15.50Q128.26-16.04 127.36-16.04L127.36-16.04L118.20-16.04L118.20-21.11L127.36-21.11Q128.09-21.11 128.89-20.95Q129.69-20.78 130.48-20.43Q131.27-20.08 131.99-19.52Q132.71-18.96 133.26-18.17Q133.81-17.38 134.14-16.35Q134.47-15.31 134.47-14.00L134.47-14.00Z M143.96-30.04L143.96-25.45L138.89-25.45L138.89-30.04L143.96-30.04ZM143.96-21.11L143.96 0L138.89 0L138.89-21.11L143.96-21.11Z M168.03-21.11L168.03-16.04L159.16-16.04L159.16 0L154.02 0L154.02-16.04L147.42-16.04L147.42-21.11L154.02-21.11L154.02-28.01L159.16-28.01L159.16-21.11L168.03-21.11Z M196.78-9.39L196.78-7.13Q196.78-6.41 196.61-5.61Q196.45-4.80 196.08-4.01Q195.72-3.22 195.16-2.50Q194.59-1.78 193.80-1.22Q193.01-0.66 191.97-0.33Q190.94 0 189.65 0L189.65 0L178.16 0Q177.11 0 175.86-0.37Q174.61-0.74 173.54-1.59Q172.48-2.44 171.77-3.80Q171.05-5.16 171.05-7.13L171.05-7.13L171.05-9.39Q171.05-10.14 171.22-10.96Q171.39-11.78 171.75-12.58Q172.11-13.38 172.68-14.10Q173.24-14.82 174.04-15.35L174.04-15.35Q173.69-16.17 173.52-17.01Q173.34-17.85 173.34-18.59L173.34-18.59L173.34-20.88Q173.34-22.83 174.05-24.20Q174.77-25.57 175.83-26.41Q176.89-27.25 178.14-27.63Q179.39-28.01 180.45-28.01L180.45-28.01L187.32-28.01Q188.63-28.01 189.68-27.68Q190.72-27.34 191.51-26.79Q192.30-26.23 192.86-25.51Q193.42-24.79 193.77-23.99Q194.12-23.20 194.29-22.39Q194.45-21.58 194.45-20.88L194.45-20.88L194.45-18.59Q194.45-16.68 193.77-15.27L193.77-15.27Q194.39-14.86 194.94-14.31Q195.49-13.75 195.90-13.03Q196.31-12.30 196.54-11.40Q196.78-10.49 196.78-9.39L196.78-9.39ZM189.38-18.59L189.38-20.84Q189.38-21.88 188.85-22.40Q188.32-22.93 187.32-22.93L187.32-22.93L180.49-22.93Q179.45-22.93 178.96-22.40Q178.46-21.88 178.46-20.88L178.46-20.88L178.46-18.59Q178.46-17.58 178.97-17.07Q179.49-16.56 180.45-16.56L180.45-16.56L187.32-16.56Q188.36-16.56 188.87-17.08Q189.38-17.60 189.38-18.59L189.38-18.59ZM191.64-7.13L191.64-9.39Q191.64-10.37 191.10-10.91Q190.57-11.45 189.65-11.45L189.65-11.45L178.16-11.45Q177.23-11.45 176.68-10.86Q176.13-10.27 176.13-9.39L176.13-9.39L176.13-7.13Q176.13-6.19 176.71-5.63Q177.29-5.08 178.16-5.08L178.16-5.08L189.65-5.08Q190.63-5.08 191.13-5.66Q191.64-6.25 191.64-7.13L191.64-7.13Z"/></g>
</svg>
</g><g opacity="1" transform="rotate(0 422.0169 290.4468)">
<svg width="265.6327" height="17.0066" x="422.0169" y="290.4468" version="1.1" preserveAspectRatio="none" viewBox="2 -28.96 586.0355999999999 37.56">
  <g transform="matrix(1 0 0 1 0 0)" class="ad9FIjLMKB_color"><path d="M14.96-26.40Q21.12-26.40 24.30-22.98Q27.48-19.56 27.48-13.20L27.48-13.20Q27.48-6.84 24.30-3.42Q21.12 0 14.96 0L14.96 0L2 0L2-26.40L14.96-26.40ZM13.64-6.64Q16.12-6.64 17.04-8.16Q17.96-9.68 17.96-13.20L17.96-13.20Q17.96-16.72 17.04-18.24Q16.12-19.76 13.64-19.76L13.64-19.76L11.32-19.76L11.32-6.64L13.64-6.64Z M53.38-10.64Q53.38-9.12 53.18-8.24L53.18-8.24L40.46-8.24Q40.66-6.76 41.30-6.24Q41.94-5.72 43.22-5.72L43.22-5.72Q45.18-5.72 45.62-7.44L45.62-7.44L53.02-5.44Q52.34-2.56 49.68-1.08Q47.02 0.40 43.22 0.40L43.22 0.40Q37.54 0.40 34.60-2.28Q31.66-4.96 31.66-10L31.66-10Q31.66-14.96 34.56-17.68Q37.46-20.40 42.74-20.40L42.74-20.40Q47.90-20.40 50.64-17.76Q53.38-15.12 53.38-10.64L53.38-10.64ZM42.78-14.32Q41.74-14.32 41.18-13.72Q40.62-13.12 40.46-11.64L40.46-11.64L44.78-11.64Q44.66-13 44.20-13.66Q43.74-14.32 42.78-14.32L42.78-14.32Z M67.16-28L67.16-7.96Q67.16-6.72 67.52-6.18Q67.88-5.64 68.80-5.64L68.80-5.64Q69.52-5.64 70.24-5.84L70.24-5.84L69.84-0.88Q69.12-0.32 67.68 0.04Q66.24 0.40 64.88 0.40L64.88 0.40Q61.16 0.40 59.56-1.20Q57.96-2.80 57.96-6.56L57.96-6.56L57.96-28L67.16-28Z M78.43-21.28Q75.71-21.28 74.57-22.16Q73.43-23.04 73.43-25.12L73.43-25.12Q73.43-27.20 74.57-28.08Q75.71-28.96 78.43-28.96L78.43-28.96Q81.15-28.96 82.29-28.08Q83.43-27.20 83.43-25.12L83.43-25.12Q83.43-23.04 82.29-22.16Q81.15-21.28 78.43-21.28L78.43-21.28ZM83.03-20L83.03 0L73.83 0L73.83-20L83.03-20Z M110.73-20L104.29 0L92.85 0L86.41-20L95.93-20L97.77-10.16L98.49-5.40L98.65-5.40L99.37-10.20L101.21-20L110.73-20Z M134.35-10.64Q134.35-9.12 134.15-8.24L134.15-8.24L121.43-8.24Q121.63-6.76 122.27-6.24Q122.91-5.72 124.19-5.72L124.19-5.72Q126.15-5.72 126.59-7.44L126.59-7.44L133.99-5.44Q133.31-2.56 130.65-1.08Q127.99 0.40 124.19 0.40L124.19 0.40Q118.51 0.40 115.57-2.28Q112.63-4.96 112.63-10L112.63-10Q112.63-14.96 115.53-17.68Q118.43-20.40 123.71-20.40L123.71-20.40Q128.87-20.40 131.61-17.76Q134.35-15.12 134.35-10.64L134.35-10.64ZM123.75-14.32Q122.71-14.32 122.15-13.72Q121.59-13.12 121.43-11.64L121.43-11.64L125.75-11.64Q125.63-13 125.17-13.66Q124.71-14.32 123.75-14.32L123.75-14.32Z M153.29-20.40Q154.69-20.40 155.37-19.92L155.37-19.92L154.61-12.40Q154.25-12.68 153.57-12.86Q152.89-13.04 152.09-13.04L152.09-13.04Q150.25-13.04 149.19-12.16Q148.13-11.28 148.13-9.60L148.13-9.60L148.13 0L138.93 0L138.93-20L147.21-20L147.41-15Q148.85-20.40 153.29-20.40L153.29-20.40Z M163.52-21.28Q160.80-21.28 159.66-22.16Q158.52-23.04 158.52-25.12L158.52-25.12Q158.52-27.20 159.66-28.08Q160.80-28.96 163.52-28.96L163.52-28.96Q166.24-28.96 167.38-28.08Q168.52-27.20 168.52-25.12L168.52-25.12Q168.52-23.04 167.38-22.16Q166.24-21.28 163.52-21.28L163.52-21.28ZM168.12-20L168.12 0L158.92 0L158.92-20L168.12-20Z M188.90-20.40Q191.86-20.40 193.52-18.64Q195.18-16.88 195.18-13.68L195.18-13.68L195.18 0L185.98 0L185.98-11.28Q185.98-12.60 185.66-13.10Q185.34-13.60 184.58-13.60L184.58-13.60Q183.58-13.60 183.12-12.84Q182.66-12.08 182.66-10.48L182.66-10.48L182.66 0L173.46 0L173.46-20L181.74-20L181.94-15.64Q182.82-17.96 184.58-19.18Q186.34-20.40 188.90-20.40L188.90-20.40Z M214.20-5.68Q222.32-5.68 222.32 1.12L222.32 1.12Q222.32 4.88 219.18 6.74Q216.04 8.60 210.16 8.60L210.16 8.60Q204.44 8.60 201.84 7.52Q199.24 6.44 199.24 4.28L199.24 4.28Q199.24 2.96 200.14 1.98Q201.04 1 203.12 0.60L203.12 0.60Q199.76-0.72 199.76-3.88L199.76-3.88Q199.76-5.28 200.68-6.40Q201.60-7.52 203.16-8.08L203.16-8.08Q199.72-9.76 199.72-13.56L199.72-13.56Q199.72-20.40 210.52-20.40L210.52-20.40Q212.80-20.40 214.44-20.12L214.44-20.12Q214.72-22.84 216.16-24.68Q217.60-26.52 220.36-26.52L220.36-26.52Q220.92-26.52 221.24-26.48L221.24-26.48L222.00-20.80Q221.32-20.96 220.56-20.96L220.56-20.96Q219.40-20.96 218.60-20.50Q217.80-20.04 217.40-19.32L217.40-19.32Q221.32-17.68 221.32-13.56L221.32-13.56Q221.32-6.80 210.52-6.80L210.52-6.80Q208.00-6.80 206.08-7.16L206.08-7.16Q205.56-7 205.56-6.52L205.56-6.52Q205.56-5.68 207.28-5.68L207.28-5.68L214.20-5.68ZM210.52-15.64Q209.72-15.64 209.28-15.10Q208.84-14.56 208.84-13.60L208.84-13.60Q208.84-12.64 209.28-12.10Q209.72-11.56 210.52-11.56L210.52-11.56Q211.32-11.56 211.76-12.10Q212.20-12.64 212.20-13.60L212.20-13.60Q212.20-14.56 211.76-15.10Q211.32-15.64 210.52-15.64L210.52-15.64ZM210.72 3.04Q213.16 3.04 214.26 2.80Q215.36 2.56 215.36 2.04L215.36 2.04Q215.36 1.72 215.04 1.58Q214.72 1.44 213.92 1.44L213.92 1.44L208.36 1.44Q206.88 1.44 206.38 1.58Q205.88 1.72 205.88 2.12L205.88 2.12Q205.88 2.60 207.00 2.82Q208.12 3.04 210.72 3.04L210.72 3.04Z M249.96-26.80Q253.88-26.80 256.64-25.88Q259.40-24.96 262.12-22.60L262.12-22.60L258.04-16.80Q256.24-18.48 254.38-19.22Q252.52-19.96 250.24-19.96L250.24-19.96Q248.84-19.96 248.00-19.54Q247.16-19.12 247.16-18.44L247.16-18.44Q247.16-18 247.96-17.76Q248.76-17.52 250.76-17.16L250.76-17.16Q256.56-16.12 259.10-14.02Q261.64-11.92 261.64-8.12L261.64-8.12Q261.64-5.40 260.08-3.48Q258.52-1.56 255.84-0.58Q253.16 0.40 249.84 0.40L249.84 0.40Q245.16 0.40 242.36-0.48Q239.56-1.36 236.88-3.32L236.88-3.32L240.88-9.64Q242.56-8 244.56-7.22Q246.56-6.44 249.16-6.44L249.16-6.44Q252.08-6.44 252.08-7.64L252.08-7.64Q252.08-8.28 251.16-8.60Q250.24-8.92 248.16-9.28L248.16-9.28Q245.12-9.84 242.98-10.56Q240.84-11.28 239.22-13Q237.60-14.72 237.60-17.72L237.60-17.72Q237.60-20.44 239.04-22.48Q240.48-24.52 243.26-25.66Q246.04-26.80 249.96-26.80L249.96-26.80Z M294.07-20.40Q297.03-20.40 298.69-18.64Q300.35-16.88 300.35-13.68L300.35-13.68L300.35 0L291.15 0L291.15-11.28Q291.15-12.60 290.83-13.10Q290.51-13.60 289.75-13.60L289.75-13.60Q288.75-13.60 288.29-12.84Q287.83-12.08 287.83-10.48L287.83-10.48L287.83 0L278.63 0L278.63-11.28Q278.63-12.60 278.31-13.10Q277.99-13.60 277.23-13.60L277.23-13.60Q276.23-13.60 275.77-12.84Q275.31-12.08 275.31-10.48L275.31-10.48L275.31 0L266.11 0L266.11-20L274.39-20L274.59-15.64Q275.47-17.96 277.23-19.18Q278.99-20.40 281.55-20.40L281.55-20.40Q283.83-20.40 285.33-19.36Q286.83-18.32 287.47-16.40L287.47-16.40Q288.43-18.36 290.09-19.38Q291.75-20.40 294.07-20.40L294.07-20.40Z M326.97-4.92Q327.65-4.92 327.97-5.08L327.97-5.08L327.25-0.40Q325.89 0.40 324.29 0.40L324.29 0.40Q321.85 0.40 320.21-0.46Q318.57-1.32 318.01-2.96L318.01-2.96Q317.09-1.40 315.31-0.50Q313.53 0.40 310.89 0.40L310.89 0.40Q307.77 0.40 306.25-0.82Q304.73-2.04 304.73-4.36L304.73-4.36Q304.73-6.88 306.53-8.38Q308.33-9.88 312.53-10.80L312.53-10.80L316.49-11.68L316.49-12.48Q316.49-13.40 316.03-13.92Q315.57-14.44 314.69-14.44L314.69-14.44Q313.73-14.44 313.17-13.90Q312.61-13.36 312.57-12L312.57-12L304.97-13.16Q305.29-16.60 307.85-18.50Q310.41-20.40 315.21-20.40L315.21-20.40Q320.53-20.40 323.07-18.36Q325.61-16.32 325.61-12.16L325.61-12.16L325.61-6.56Q325.61-4.92 326.97-4.92L326.97-4.92ZM314.77-4.60Q315.53-4.60 316.01-5.10Q316.49-5.60 316.49-6.56L316.49-6.56L316.49-8.48L315.17-8.08Q314.33-7.84 313.85-7.30Q313.37-6.76 313.37-6L313.37-6Q313.37-5.32 313.77-4.96Q314.17-4.60 314.77-4.60L314.77-4.60Z M345.75-20.40Q347.15-20.40 347.83-19.92L347.83-19.92L347.07-12.40Q346.71-12.68 346.03-12.86Q345.35-13.04 344.55-13.04L344.55-13.04Q342.71-13.04 341.65-12.16Q340.59-11.28 340.59-9.60L340.59-9.60L340.59 0L331.39 0L331.39-20L339.67-20L339.87-15Q341.31-20.40 345.75-20.40L345.75-20.40Z M367.05-6.16L367.45-0.96Q366.45-0.36 364.75 0.02Q363.05 0.40 361.49 0.40L361.49 0.40Q357.17 0.40 355.05-1.26Q352.93-2.92 352.93-6.72L352.93-6.72L352.93-13.80L349.85-13.80L349.85-20L352.93-20L352.93-24.24L362.13-26.80L362.13-20L367.17-20L367.17-13.80L362.13-13.80L362.13-8.16Q362.13-6.80 362.71-6.22Q363.29-5.64 364.53-5.64L364.53-5.64Q366.01-5.64 367.05-6.16L367.05-6.16Z M395.54-26.80Q399.46-26.80 402.22-25.88Q404.98-24.96 407.70-22.60L407.70-22.60L403.62-16.80Q401.82-18.48 399.96-19.22Q398.10-19.96 395.82-19.96L395.82-19.96Q394.42-19.96 393.58-19.54Q392.74-19.12 392.74-18.44L392.74-18.44Q392.74-18 393.54-17.76Q394.34-17.52 396.34-17.16L396.34-17.16Q402.14-16.12 404.68-14.02Q407.22-11.92 407.22-8.12L407.22-8.12Q407.22-5.40 405.66-3.48Q404.10-1.56 401.42-0.58Q398.74 0.40 395.42 0.40L395.42 0.40Q390.74 0.40 387.94-0.48Q385.14-1.36 382.46-3.32L382.46-3.32L386.46-9.64Q388.14-8 390.14-7.22Q392.14-6.44 394.74-6.44L394.74-6.44Q397.66-6.44 397.66-7.64L397.66-7.64Q397.66-8.28 396.74-8.60Q395.82-8.92 393.74-9.28L393.74-9.28Q390.70-9.84 388.56-10.56Q386.42-11.28 384.80-13Q383.18-14.72 383.18-17.72L383.18-17.72Q383.18-20.44 384.62-22.48Q386.06-24.52 388.84-25.66Q391.62-26.80 395.54-26.80L395.54-26.80Z M422.08-20.40Q427.40-20.40 430.32-17.68Q433.24-14.96 433.24-10L433.24-10Q433.24-5.04 430.32-2.32Q427.40 0.40 422.08 0.40L422.08 0.40Q416.76 0.40 413.84-2.32Q410.92-5.04 410.92-10L410.92-10Q410.92-14.96 413.84-17.68Q416.76-20.40 422.08-20.40L422.08-20.40ZM422.08-14.20Q421.28-14.20 420.88-13.84Q420.48-13.48 420.32-12.60Q420.16-11.72 420.16-10L420.16-10Q420.16-8.28 420.32-7.40Q420.48-6.52 420.88-6.16Q421.28-5.80 422.08-5.80L422.08-5.80Q422.88-5.80 423.28-6.16Q423.68-6.52 423.84-7.40Q424.00-8.28 424.00-10L424.00-10Q424.00-11.72 423.84-12.60Q423.68-13.48 423.28-13.84Q422.88-14.20 422.08-14.20L422.08-14.20Z M447.02-28L447.02-7.96Q447.02-6.72 447.38-6.18Q447.74-5.64 448.66-5.64L448.66-5.64Q449.38-5.64 450.10-5.84L450.10-5.84L449.70-0.88Q448.98-0.32 447.54 0.04Q446.10 0.40 444.74 0.40L444.74 0.40Q441.02 0.40 439.42-1.20Q437.82-2.80 437.82-6.56L437.82-6.56L437.82-28L447.02-28Z M466.16-20L475.36-20L475.36 0L467.08 0L466.88-4.24Q466.00-1.92 464.30-0.76Q462.60 0.40 460.12 0.40L460.12 0.40Q456.92 0.40 455.28-1.26Q453.64-2.92 453.64-6.48L453.64-6.48L453.64-20L462.84-20L462.84-8.76Q462.84-7.44 463.18-6.92Q463.52-6.40 464.32-6.40L464.32-6.40Q466.16-6.40 466.16-9.56L466.16-9.56L466.16-20Z M496.39-6.16L496.79-0.96Q495.79-0.36 494.09 0.02Q492.39 0.40 490.83 0.40L490.83 0.40Q486.51 0.40 484.39-1.26Q482.27-2.92 482.27-6.72L482.27-6.72L482.27-13.80L479.19-13.80L479.19-20L482.27-20L482.27-24.24L491.47-26.80L491.47-20L496.51-20L496.51-13.80L491.47-13.80L491.47-8.16Q491.47-6.80 492.05-6.22Q492.63-5.64 493.87-5.64L493.87-5.64Q495.35-5.64 496.39-6.16L496.39-6.16Z M505.33-21.28Q502.61-21.28 501.47-22.16Q500.33-23.04 500.33-25.12L500.33-25.12Q500.33-27.20 501.47-28.08Q502.61-28.96 505.33-28.96L505.33-28.96Q508.05-28.96 509.19-28.08Q510.33-27.20 510.33-25.12L510.33-25.12Q510.33-23.04 509.19-22.16Q508.05-21.28 505.33-21.28L505.33-21.28ZM509.93-20L509.93 0L500.73 0L500.73-20L509.93-20Z M525.67-20.40Q530.99-20.40 533.91-17.68Q536.83-14.96 536.83-10L536.83-10Q536.83-5.04 533.91-2.32Q530.99 0.40 525.67 0.40L525.67 0.40Q520.35 0.40 517.43-2.32Q514.51-5.04 514.51-10L514.51-10Q514.51-14.96 517.43-17.68Q520.35-20.40 525.67-20.40L525.67-20.40ZM525.67-14.20Q524.87-14.20 524.47-13.84Q524.07-13.48 523.91-12.60Q523.75-11.72 523.75-10L523.75-10Q523.75-8.28 523.91-7.40Q524.07-6.52 524.47-6.16Q524.87-5.80 525.67-5.80L525.67-5.80Q526.47-5.80 526.87-6.16Q527.27-6.52 527.43-7.40Q527.59-8.28 527.59-10L527.59-10Q527.59-11.72 527.43-12.60Q527.27-13.48 526.87-13.84Q526.47-14.20 525.67-14.20L525.67-14.20Z M556.85-20.40Q559.81-20.40 561.47-18.64Q563.13-16.88 563.13-13.68L563.13-13.68L563.13 0L553.93 0L553.93-11.28Q553.93-12.60 553.61-13.10Q553.29-13.60 552.53-13.60L552.53-13.60Q551.53-13.60 551.07-12.84Q550.61-12.08 550.61-10.48L550.61-10.48L550.61 0L541.41 0L541.41-20L549.69-20L549.89-15.64Q550.77-17.96 552.53-19.18Q554.29-20.40 556.85-20.40L556.85-20.40Z M577.72 0.40Q574.00 0.40 571.44-0.30Q568.88-1 567.12-2.56L567.12-2.56L571.16-7.44Q572.32-6.40 573.84-5.76Q575.36-5.12 577.04-5.12L577.04-5.12Q577.80-5.12 578.30-5.26Q578.80-5.40 578.80-5.72L578.80-5.72Q578.80-6.08 578.12-6.38Q577.44-6.68 575.80-7L575.80-7Q571.48-7.84 569.50-9.42Q567.52-11 567.52-13.44L567.52-13.44Q567.52-15.20 568.70-16.78Q569.88-18.36 572.32-19.38Q574.76-20.40 578.36-20.40L578.36-20.40Q581.88-20.40 584.26-19.56Q586.64-18.72 588.00-17.48L588.00-17.48L584.24-13.04Q582.40-14.88 578.80-14.88L578.80-14.88Q577.72-14.88 577.24-14.68Q576.76-14.48 576.76-14.16L576.76-14.16Q576.76-13.68 579.20-13.36L579.20-13.36Q583.80-12.72 585.92-11.14Q588.04-9.56 588.04-6.80L588.04-6.80Q588.04-3.68 585.48-1.64Q582.92 0.40 577.72 0.40L577.72 0.40Z"/></g>
</svg>
</g></svg>